<?xml version="1.0" encoding="UTF-8"?>
<!DOCTYPE svg PUBLIC "-//W3C//DTD SVG 1.1//EN" "http://www.w3.org/Graphics/SVG/1.1/DTD/svg11.dtd">
<svg xmlns="http://www.w3.org/2000/svg" version="1.1" width="72px" height="72px" style="shape-rendering:geometricPrecision; text-rendering:geometricPrecision; image-rendering:optimizeQuality; fill-rule:evenodd; clip-rule:evenodd" xmlns:xlink="http://www.w3.org/1999/xlink">
<g><path style="opacity:1" fill="#eec133" d="M -0.5,-0.5 C 23.5,-0.5 47.5,-0.5 71.5,-0.5C 71.5,13.1667 71.5,26.8333 71.5,40.5C 68.7938,40.4249 66.1272,40.0916 63.5,39.5C 63.5,33.5 63.5,27.5 63.5,21.5C 64.287,19.8958 65.6203,19.2291 67.5,19.5C 67.5,18.5 67.5,17.5 67.5,16.5C 61.1579,16.3338 54.8246,16.5005 48.5,17C 48.1667,17.3333 47.8333,17.6667 47.5,18C 49.4308,18.9022 51.0975,20.0688 52.5,21.5C 52.6621,23.5273 52.4955,25.5273 52,27.5C 48.6014,30.7289 45.4347,34.0622 42.5,37.5C 41.508,30.0182 41.1746,22.3516 41.5,14.5C 42.4746,12.2048 43.8079,10.2048 45.5,8.5C 33.6783,7.50492 21.6783,7.17159 9.5,7.5C 9.35055,8.55198 9.51722,9.55198 10,10.5C 13.9459,12.3799 15.4459,15.5466 14.5,20C 14.4969,28.552 12.8303,36.7186 9.5,44.5C 6.16667,45.8333 2.83333,45.8333 -0.5,44.5C -0.5,29.5 -0.5,14.5 -0.5,-0.5 Z"/></g>
<g><path style="opacity:1" fill="#2b769a" d="M 45.5,8.5 C 42.8878,9.27748 41.0545,10.9441 40,13.5C 39.502,16.4816 39.3354,19.4816 39.5,22.5C 36.1405,23.2096 34.3071,21.8762 34,18.5C 33.0012,28.4765 32.3345,38.4765 32,48.5C 31.0975,49.7014 29.9308,50.5348 28.5,51C 23.3165,51.1739 18.3165,51.6739 13.5,52.5C 10.038,52.1927 10.038,51.1927 13.5,49.5C 18.6946,49.8205 23.6946,49.4872 28.5,48.5C 29.4959,48.5858 30.3292,48.2524 31,47.5C 31.4999,35.8381 31.6665,24.1714 31.5,12.5C 29.777,11.1999 27.6103,10.5332 25,10.5C 22.5759,10.5296 20.2426,10.8629 18,11.5C 16.4513,22.8509 14.7847,34.1842 13,45.5C 10.6649,47.3208 8.16489,48.9875 5.5,50.5C 5.16667,52.3333 4.83333,54.1667 4.5,56C 4.5465,58.2953 5.21317,60.1286 6.5,61.5C 5.79105,62.404 4.79105,62.7373 3.5,62.5C 3.33432,58.1539 3.50098,53.8206 4,49.5C 6.61154,48.6232 8.44487,46.9566 9.5,44.5C 12.8303,36.7186 14.4969,28.552 14.5,20C 15.4459,15.5466 13.9459,12.3799 10,10.5C 9.51722,9.55198 9.35055,8.55198 9.5,7.5C 21.6783,7.17159 33.6783,7.50492 45.5,8.5 Z"/></g>
<g><path style="opacity:1" fill="#e5b831" d="M 31.5,12.5 C 31.6665,24.1714 31.4999,35.8381 31,47.5C 30.3292,48.2524 29.4959,48.5858 28.5,48.5C 23.3814,49.1031 18.7147,48.4364 14.5,46.5C 17.7703,35.749 19.6037,24.749 20,13.5C 23.73,12.5399 27.5633,12.2065 31.5,12.5 Z"/></g>
<g><path style="opacity:1" fill="#727650" d="M 41.5,14.5 C 41.1746,22.3516 41.508,30.0182 42.5,37.5C 42.5,38.1667 42.1667,38.5 41.5,38.5C 40.1667,30.5 40.1667,22.5 41.5,14.5 Z"/></g>
<g><path style="opacity:1" fill="#0c5b87" d="M 45.5,8.5 C 43.8079,10.2048 42.4746,12.2048 41.5,14.5C 40.1667,22.5 40.1667,30.5 41.5,38.5C 40.0313,40.1053 40.3646,40.6053 42.5,40C 46.7016,36.1334 50.5349,31.9668 54,27.5C 54.1206,25.3157 53.6206,23.3157 52.5,21.5C 51.0975,20.0688 49.4308,18.9022 47.5,18C 47.8333,17.6667 48.1667,17.3333 48.5,17C 54.8246,16.5005 61.1579,16.3338 67.5,16.5C 67.5,17.5 67.5,18.5 67.5,19.5C 65.6203,19.2291 64.287,19.8958 63.5,21.5C 62.3415,31.6584 62.1748,41.9917 63,52.5C 64.3513,54.019 65.8513,55.3523 67.5,56.5C 61.2015,57.4963 54.8682,57.8297 48.5,57.5C 48.5,56.5 48.5,55.5 48.5,54.5C 50.3797,54.7709 51.713,54.1042 52.5,52.5C 53.654,46.013 53.8206,39.3464 53,32.5C 52.2828,33.0442 51.7828,33.7109 51.5,34.5C 47.4483,37.5499 44.115,41.2166 41.5,45.5C 41.7853,47.5688 42.952,48.9021 45,49.5C 45.499,53.8206 45.6657,58.1539 45.5,62.5C 44.448,62.6495 43.448,62.4828 42.5,62C 41.6679,57.8344 39.3346,54.8344 35.5,53C 28.1742,52.5003 20.8409,52.3337 13.5,52.5C 18.3165,51.6739 23.3165,51.1739 28.5,51C 29.9308,50.5348 31.0975,49.7014 32,48.5C 32.3345,38.4765 33.0012,28.4765 34,18.5C 34.3071,21.8762 36.1405,23.2096 39.5,22.5C 39.3354,19.4816 39.502,16.4816 40,13.5C 41.0545,10.9441 42.8878,9.27748 45.5,8.5 Z"/></g>
<g><path style="opacity:1" fill="#c2aa4e" d="M 52.5,52.5 C 52.8229,46.31 52.4896,40.31 51.5,34.5C 51.7828,33.7109 52.2828,33.0442 53,32.5C 53.8206,39.3464 53.654,46.013 52.5,52.5 Z"/></g>
<g><path style="opacity:1" fill="#6495ad" d="M 52.5,21.5 C 53.6206,23.3157 54.1206,25.3157 54,27.5C 50.5349,31.9668 46.7016,36.1334 42.5,40C 40.3646,40.6053 40.0313,40.1053 41.5,38.5C 42.1667,38.5 42.5,38.1667 42.5,37.5C 45.4347,34.0622 48.6014,30.7289 52,27.5C 52.4955,25.5273 52.6621,23.5273 52.5,21.5 Z"/></g>
<g><path style="opacity:1" fill="#10577e" d="M 31.5,12.5 C 27.5633,12.2065 23.73,12.5399 20,13.5C 19.6037,24.749 17.7703,35.749 14.5,46.5C 13.596,47.209 13.2627,48.209 13.5,49.5C 10.038,51.1927 10.038,52.1927 13.5,52.5C 10.083,54.592 7.74967,57.592 6.5,61.5C 5.21317,60.1286 4.5465,58.2953 4.5,56C 4.83333,54.1667 5.16667,52.3333 5.5,50.5C 8.16489,48.9875 10.6649,47.3208 13,45.5C 14.7847,34.1842 16.4513,22.8509 18,11.5C 20.2426,10.8629 22.5759,10.5296 25,10.5C 27.6103,10.5332 29.777,11.1999 31.5,12.5 Z"/></g>
<g><path style="opacity:1" fill="#9b9c69" d="M 14.5,46.5 C 18.7147,48.4364 23.3814,49.1031 28.5,48.5C 23.6946,49.4872 18.6946,49.8205 13.5,49.5C 13.2627,48.209 13.596,47.209 14.5,46.5 Z"/></g>
<g><path style="opacity:1" fill="#e0b026" d="M -0.5,44.5 C 2.83333,45.8333 6.16667,45.8333 9.5,44.5C 8.44487,46.9566 6.61154,48.6232 4,49.5C 3.50098,53.8206 3.33432,58.1539 3.5,62.5C 4.79105,62.7373 5.79105,62.404 6.5,61.5C 7.74967,57.592 10.083,54.592 13.5,52.5C 20.8409,52.3337 28.1742,52.5003 35.5,53C 39.3346,54.8344 41.6679,57.8344 42.5,62C 43.448,62.4828 44.448,62.6495 45.5,62.5C 46.2297,64.045 47.563,64.8784 49.5,65C 56.8282,66.277 64.1615,67.4437 71.5,68.5C 71.5,69.5 71.5,70.5 71.5,71.5C 47.5,71.5 23.5,71.5 -0.5,71.5C -0.5,62.5 -0.5,53.5 -0.5,44.5 Z"/></g>
<g><path style="opacity:1" fill="#e3b42a" d="M 63.5,21.5 C 63.5,27.5 63.5,33.5 63.5,39.5C 66.1272,40.0916 68.7938,40.4249 71.5,40.5C 71.5,49.8333 71.5,59.1667 71.5,68.5C 64.1615,67.4437 56.8282,66.277 49.5,65C 47.563,64.8784 46.2297,64.045 45.5,62.5C 45.6657,58.1539 45.499,53.8206 45,49.5C 42.952,48.9021 41.7853,47.5688 41.5,45.5C 44.115,41.2166 47.4483,37.5499 51.5,34.5C 52.4896,40.31 52.8229,46.31 52.5,52.5C 51.713,54.1042 50.3797,54.7709 48.5,54.5C 48.5,55.5 48.5,56.5 48.5,57.5C 54.8682,57.8297 61.2015,57.4963 67.5,56.5C 65.8513,55.3523 64.3513,54.019 63,52.5C 62.1748,41.9917 62.3415,31.6584 63.5,21.5 Z"/></g>
</svg>
